<?xml version="1.0" encoding="UTF-8" standalone="no"?>
<!-- Created with Inkscape (http://www.inkscape.org/) -->

<svg
   width="524.95264"
   height="151.0273"
   viewBox="0 0 138.89371 39.959305"
   version="1.1"
   id="svg1"
   inkscape:version="1.4 (86a8ad7, 2024-10-11)"
   sodipodi:docname="pitamai-only-logo.svg"
   inkscape:export-filename="ロゴ的なやつ4.png"
   inkscape:export-xdpi="96"
   inkscape:export-ydpi="96"
   xml:space="preserve"
   xmlns:inkscape="http://www.inkscape.org/namespaces/inkscape"
   xmlns:sodipodi="http://sodipodi.sourceforge.net/DTD/sodipodi-0.dtd"
   xmlns="http://www.w3.org/2000/svg"
   xmlns:svg="http://www.w3.org/2000/svg"><sodipodi:namedview
     id="namedview1"
     pagecolor="#505050"
     bordercolor="#ffffff"
     borderopacity="1"
     inkscape:showpageshadow="0"
     inkscape:pageopacity="0"
     inkscape:pagecheckerboard="1"
     inkscape:deskcolor="#505050"
     inkscape:document-units="mm"
     showgrid="true"
     inkscape:zoom="1.0595392"
     inkscape:cx="455.85855"
     inkscape:cy="104.29062"
     inkscape:window-width="1920"
     inkscape:window-height="1009"
     inkscape:window-x="-8"
     inkscape:window-y="-8"
     inkscape:window-maximized="1"
     inkscape:current-layer="layer1"><inkscape:grid
       id="grid2"
       units="mm"
       originx="-265.93408"
       originy="-368.17566"
       spacingx="0.99999998"
       spacingy="1"
       empcolor="#0099e5"
       empopacity="0.30196078"
       color="#0099e5"
       opacity="0.14901961"
       empspacing="5"
       dotted="false"
       gridanglex="30"
       gridanglez="30"
       visible="true" /></sodipodi:namedview><defs
     id="defs1" /><g
     inkscape:label="Layer 1"
     inkscape:groupmode="layer"
     id="layer1"
     transform="translate(-89.480372,-97.229284)"><path
       style="font-size:11.0001px;line-height:1;font-family:'Monomaniac One';-inkscape-font-specification:'Monomaniac One';text-align:center;letter-spacing:0.529167px;text-orientation:upright;text-anchor:middle;fill:#ffffff;stroke:#000000;stroke-width:1.8353;stroke-linecap:round;stroke-miterlimit:1.5;stroke-dasharray:none;stroke-opacity:1;paint-order:stroke fill markers"
       d="m 147.31858,114.59758 c 0,0.7325 -0.18313,1.40397 -0.54938,2.01441 -0.34591,0.61042 -0.82408,1.09875 -1.4345,1.465 -0.61043,0.36626 -1.29206,0.54939 -2.04491,0.54939 h -5.61593 c -0.24417,0 -0.36625,0.13226 -0.36625,0.39677 v 6.28738 c 0,0.38662 -0.14244,0.72236 -0.42733,1.00722 -0.26451,0.26452 -0.59007,0.39678 -0.97667,0.39678 h -0.82406 c -0.3866,0 -0.72234,-0.13226 -1.00723,-0.39678 -0.26451,-0.28486 -0.39677,-0.6206 -0.39677,-1.00722 v -17.82441 c 0,-0.40697 0.13226,-0.7427 0.39677,-1.00721 0.28489,-0.26453 0.62063,-0.39679 1.00723,-0.39679 h 8.21024 c 0.75285,0 1.43448,0.18313 2.04491,0.54939 0.61042,0.36625 1.08859,0.85459 1.4345,1.46504 0.36625,0.61042 0.54938,1.29206 0.54938,2.04491 z m -3.6015,0 v -4.45612 c 0,-0.28487 -0.14243,-0.42731 -0.42729,-0.42731 h -5.61593 c -0.24417,0 -0.36625,0.13226 -0.36625,0.39678 v 4.48665 c 0,0.26451 0.12208,0.39677 0.36625,0.39677 h 5.61593 c 0.28486,0 0.42729,-0.13226 0.42729,-0.39677 z m 12.12019,-6.56207 c 0,0.63076 -0.23399,1.18013 -0.70197,1.64812 -0.44767,0.44765 -0.97671,0.67147 -1.58713,0.67147 -0.63077,0 -1.18015,-0.22382 -1.64814,-0.67147 -0.44766,-0.46799 -0.67149,-1.01736 -0.67149,-1.64812 0,-0.61045 0.22383,-1.13949 0.67149,-1.58713 0.46799,-0.46799 1.01737,-0.70198 1.64814,-0.70198 0.61042,0 1.13946,0.23399 1.58713,0.70198 0.46798,0.44764 0.70197,0.97668 0.70197,1.58713 z m -0.48833,17.27502 c 0,0.38662 -0.14243,0.72236 -0.4273,1.00722 -0.26453,0.26452 -0.5901,0.39678 -0.9767,0.39678 h -0.82407 c -0.38659,0 -0.72232,-0.13226 -1.00719,-0.39678 -0.26451,-0.28486 -0.39677,-0.6206 -0.39677,-1.00722 V 112.6442 c 0,-0.38659 0.13226,-0.71215 0.39677,-0.97668 0.28487,-0.28485 0.6206,-0.42728 1.00719,-0.42728 h 0.82407 c 0.3866,0 0.71217,0.14243 0.9767,0.42728 0.28487,0.26453 0.4273,0.59009 0.4273,0.97668 z m 13.46313,0 c 0,0.38662 -0.13226,0.72236 -0.39678,1.00722 -0.26451,0.26452 -0.59007,0.39678 -0.97668,0.39678 h -4.27296 c -0.936,0 -1.73973,-0.32557 -2.41119,-0.97671 -0.65113,-0.67146 -0.9767,-1.48535 -0.9767,-2.44167 v -15.81003 c 0,-0.40697 0.13226,-0.7427 0.39679,-1.00721 0.26452,-0.26453 0.59008,-0.39679 0.97668,-0.39679 h 0.85459 c 0.3866,0 0.71216,0.13226 0.97667,0.39679 0.28489,0.26451 0.42733,0.60024 0.42733,1.00721 v 3.05213 c 0,0.24417 0.13225,0.36626 0.39676,0.36626 h 3.63203 c 0.38661,0 0.71217,0.14243 0.97668,0.42729 0.26452,0.26451 0.39678,0.60024 0.39678,1.00719 v 0.82407 c 0,0.34593 -0.13226,0.67149 -0.39678,0.9767 -0.30521,0.26451 -0.63077,0.39677 -0.97668,0.39677 h -3.63203 c -0.26451,0 -0.39676,0.14243 -0.39676,0.4273 v 7.75241 c 0,0.26452 0.13225,0.39678 0.39676,0.39678 h 3.63203 c 0.38661,0 0.71217,0.13226 0.97668,0.39677 0.26452,0.26452 0.39678,0.60025 0.39678,1.00719 z m 14.98919,-2.01438 c 0,0.95632 -0.33574,1.77021 -1.00722,2.44167 -0.65111,0.65114 -1.44466,0.97671 -2.38064,0.97671 h -4.24247 c -0.93598,0 -1.73971,-0.32557 -2.41119,-0.97671 -0.67147,-0.67146 -1.0072,-1.48535 -1.0072,-2.44167 v -3.32683 c 0,-0.63078 0.15261,-1.19034 0.45783,-1.67868 0.32555,-0.50868 0.74268,-0.91563 1.25138,-1.22084 0.50869,-0.30521 1.07841,-0.45781 1.70918,-0.45781 h 3.60151 c 0.10173,0 0.19329,-0.0407 0.27468,-0.12208 0.10174,-0.0814 0.15261,-0.18313 0.15261,-0.30522 v -1.22084 c 0,-0.12208 -0.0509,-0.22381 -0.15261,-0.3052 -0.0814,-0.0814 -0.17295,-0.12209 -0.27468,-0.12209 h -3.60151 c -0.3866,0 -0.72233,-0.13226 -1.00719,-0.39678 -0.26452,-0.26451 -0.39678,-0.59007 -0.39678,-0.97669 v -0.82407 c 0,-0.40695 0.13226,-0.74268 0.39678,-1.0072 0.28486,-0.28486 0.62059,-0.42729 1.00719,-0.42729 h 4.24247 c 0.63077,0 1.20049,0.1526 1.70918,0.45781 0.50869,0.30522 0.91564,0.72234 1.22087,1.25137 0.30521,0.50868 0.45781,1.07841 0.45781,1.7092 z m -3.60151,-0.57991 v -2.10597 c 0,-0.10173 -0.0509,-0.1933 -0.1526,-0.27469 -0.0814,-0.0814 -0.17295,-0.12208 -0.27469,-0.12208 h -2.96056 c -0.10174,0 -0.20349,0.0407 -0.30524,0.12208 -0.0814,0.0814 -0.12209,0.17296 -0.12209,0.27469 v 2.10597 c 0,0.10175 0.0407,0.19331 0.12209,0.2747 0.10173,0.0814 0.20348,0.12208 0.30524,0.12208 h 2.96056 c 0.10174,0 0.1933,-0.0407 0.27469,-0.12208 0.10173,-0.0814 0.1526,-0.17295 0.1526,-0.2747 z m 23.71827,2.59429 c 0,0.38662 -0.13225,0.72236 -0.39676,1.00722 -0.26453,0.26452 -0.60026,0.39678 -1.0072,0.39678 h -0.82407 c -0.38662,0 -0.72236,-0.13226 -1.00722,-0.39678 -0.26452,-0.28486 -0.39678,-0.6206 -0.39678,-1.00722 v -9.18691 c 0,-0.0814 -0.0407,-0.13225 -0.12208,-0.1526 -0.0611,-0.0203 -0.11193,0 -0.1526,0.061 l -2.93004,6.04322 c -0.0611,0.16278 -0.19333,0.30521 -0.39679,0.42729 -0.20347,0.12209 -0.39676,0.22383 -0.57989,0.30523 l -0.24417,0.0916 c -0.63077,0 -1.04789,-0.2747 -1.25136,-0.8241 l -2.93005,-6.04322 c -0.0203,-0.0611 -0.0712,-0.0814 -0.1526,-0.061 -0.0814,0.0203 -0.12208,0.0712 -0.12208,0.1526 v 9.18691 c 0,0.38662 -0.14244,0.72236 -0.42733,1.00722 -0.26451,0.26452 -0.59007,0.39678 -0.97667,0.39678 h -0.85459 c -0.38659,0 -0.72232,-0.13226 -1.00719,-0.39678 -0.26453,-0.28486 -0.3968,-0.6206 -0.3968,-1.00722 v -17.8244 c 0,-0.40697 0.13227,-0.7427 0.3968,-1.00721 0.28487,-0.26453 0.6206,-0.39679 1.00719,-0.39679 h 0.88511 c 0.56973,0 0.98686,0.26452 1.2514,0.79355 0.10173,0.22382 0.3052,0.6613 0.61041,1.31244 0.32556,0.63077 0.70198,1.38362 1.12927,2.25855 0.4273,0.87495 0.86478,1.80077 1.31244,2.77744 0.46799,0.95635 0.91563,1.87199 1.34292,2.74692 0.0407,0.0814 0.0915,0.12208 0.1526,0.12208 0.0814,0 0.14244,-0.0407 0.18314,-0.12208 l 4.36453,-9.09535 c 0.26452,-0.52903 0.69182,-0.79355 1.28191,-0.79355 h 0.85459 c 0.40694,0 0.74267,0.13226 1.0072,0.39679 0.26453,0.26451 0.39679,0.60024 0.39679,1.00721 z m 14.98921,-2.01438 c 0,0.95632 -0.33574,1.77021 -1.00723,2.44167 -0.65111,0.65114 -1.44467,0.97671 -2.38066,0.97671 h -4.24245 c -0.93597,0 -1.7397,-0.32557 -2.41118,-0.97671 -0.67147,-0.67146 -1.0072,-1.48535 -1.0072,-2.44167 v -3.32683 c 0,-0.63078 0.1526,-1.19034 0.45781,-1.67868 0.32555,-0.50868 0.74268,-0.91563 1.25139,-1.22084 0.50869,-0.30521 1.07841,-0.45781 1.70918,-0.45781 h 3.60151 c 0.10173,0 0.19329,-0.0407 0.27468,-0.12208 0.10173,-0.0814 0.1526,-0.18313 0.1526,-0.30522 v -1.22084 c 0,-0.12208 -0.0509,-0.22381 -0.1526,-0.3052 -0.0814,-0.0814 -0.17295,-0.12209 -0.27468,-0.12209 h -3.60151 c -0.38659,0 -0.72233,-0.13226 -1.0072,-0.39678 -0.26451,-0.26451 -0.39676,-0.59007 -0.39676,-0.97669 v -0.82407 c 0,-0.40695 0.13225,-0.74268 0.39676,-1.0072 0.28487,-0.28486 0.62061,-0.42729 1.0072,-0.42729 h 4.24245 c 0.63079,0 1.20052,0.1526 1.70921,0.45781 0.50867,0.30522 0.91562,0.72234 1.22083,1.25137 0.30523,0.50868 0.45785,1.07841 0.45785,1.7092 z m -3.60155,-0.57991 v -2.10597 c 0,-0.10173 -0.0509,-0.1933 -0.1526,-0.27469 -0.0814,-0.0814 -0.17295,-0.12208 -0.27468,-0.12208 h -2.96054 c -0.10174,0 -0.20348,0.0407 -0.30523,0.12208 -0.0814,0.0814 -0.12209,0.17296 -0.12209,0.27469 v 2.10597 c 0,0.10175 0.0407,0.19331 0.12209,0.2747 0.10173,0.0814 0.20348,0.12208 0.30523,0.12208 h 2.96054 c 0.10173,0 0.19329,-0.0407 0.27468,-0.12208 0.10173,-0.0814 0.1526,-0.17295 0.1526,-0.2747 z m 12.15076,-14.68073 c 0,0.63076 -0.234,1.18013 -0.70201,1.64812 -0.44764,0.44765 -0.97667,0.67147 -1.58709,0.67147 -0.63077,0 -1.18015,-0.22382 -1.64816,-0.67147 -0.44765,-0.46799 -0.67147,-1.01736 -0.67147,-1.64812 0,-0.61045 0.22382,-1.13949 0.67147,-1.58713 0.46801,-0.46799 1.01739,-0.70198 1.64816,-0.70198 0.61042,0 1.13945,0.23399 1.58709,0.70198 0.46801,0.44764 0.70201,0.97668 0.70201,1.58713 z m -0.48833,17.27502 c 0,0.38662 -0.14244,0.72236 -0.42733,1.00722 -0.26451,0.26452 -0.59007,0.39678 -0.97667,0.39678 h -0.82407 c -0.38659,0 -0.72233,-0.13226 -1.00722,-0.39678 -0.26451,-0.28486 -0.39677,-0.6206 -0.39677,-1.00722 V 112.6442 c 0,-0.38659 0.13226,-0.71215 0.39677,-0.97668 0.28489,-0.28485 0.62063,-0.42728 1.00722,-0.42728 h 0.82407 c 0.3866,0 0.71216,0.14243 0.97667,0.42728 0.28489,0.26453 0.42733,0.59009 0.42733,0.97668 z"
       id="text1"
       aria-label="PitaMai Technology"
       sodipodi:nodetypes="scssssscsscsscssscsssssssssssscscssscssssscsscsscssscsscsscsscsssscsscsssssssssscsscsscssscsscsscsssssscsssscsscsscsscsccsscsscccscccccsscsscsscssccsccsccsssccscsscsscssscsscsscsssssscsssscsscsscsscsssscssscssssscsscsscss" /><g
       inkscape:label="Layer 1"
       id="layer1-8"><path
         id="path1-2"
         style="fill:#4d663e;stroke:#101010;stroke-width:0.507116;stroke-linecap:round;stroke-linejoin:round;stroke-miterlimit:1.5;paint-order:stroke fill markers"
         inkscape:transform-center-x="-3.0301989"
         transform="matrix(0.84188967,-0.50000001,0.48606522,0.86602541,-29.145858,76.34621)"
         d="M 97.199407,113.61179 H 75.603709 L 86.401558,94.909366 Z" /><path
         id="path1-6-4"
         style="fill:#b8fb97;stroke:#101010;stroke-width:0.5;stroke-linecap:round;stroke-linejoin:round;stroke-miterlimit:1.5;paint-order:stroke fill markers"
         inkscape:transform-center-x="1.6135173"
         inkscape:transform-center-y="1.6135058"
         transform="rotate(45,94.888447,129.84336)"
         d="M 97.199407,113.61179 H 75.603709 L 86.401558,94.909366 Z" /><path
         id="path1-8-5"
         style="fill:#b8fb97;stroke:#101010;stroke-width:0.489886;stroke-linecap:square;stroke-linejoin:round;stroke-miterlimit:1.5;paint-order:stroke fill markers"
         inkscape:transform-center-x="1.680829"
         inkscape:transform-center-y="-1.6135139"
         transform="matrix(1.0062229,0.25881905,-0.26961661,0.96592583,62.738639,-3.1848348)"
         d="M 97.199407,113.61179 H 75.603709 L 86.401558,94.909366 Z" /><path
         id="path2-5"
         style="fill:#b7fa96;stroke:#101010;stroke-width:0.5;stroke-linecap:round;stroke-linejoin:round;stroke-miterlimit:1.5;paint-order:stroke fill markers"
         d="m 120,106.41261 a 2.2856412,1.412604 0 0 1 -2.28564,1.41261 2.2856412,1.412604 0 0 1 -2.28564,-1.41261 2.2856412,1.412604 0 0 1 2.28564,-1.4126 2.2856412,1.412604 0 0 1 2.28564,1.4126 z" /><path
         id="path2-6-1"
         style="fill:#b8fb97;stroke:#101010;stroke-width:0.5;stroke-linecap:round;stroke-linejoin:round;stroke-miterlimit:1.5;paint-order:stroke fill markers"
         d="m 130,100 a 4.9999967,2.520716 0 0 1 -4.99999,2.52072 4.9999967,2.520716 0 0 1 -5,-2.52072 4.9999967,2.520716 0 0 1 5,-2.520716 A 4.9999967,2.520716 0 0 1 130,100 Z" /></g></g></svg>
